<mxfile host="app.diagrams.net" modified="2023-12-07T19:26:55.666Z" agent="Mozilla/5.0 (Windows NT 10.0; Win64; x64) AppleWebKit/537.36 (KHTML, like Gecko) Chrome/119.0.0.0 Safari/537.36" etag="GmmQ_2QI1yrqbycLifG-" version="22.1.7" type="device">
  <diagram name="Page-1" id="JmYdZjdCoQZ7lhy78jfB">
    <mxGraphModel dx="882" dy="578" grid="1" gridSize="10" guides="1" tooltips="1" connect="1" arrows="1" fold="1" page="1" pageScale="1" pageWidth="850" pageHeight="1100" math="0" shadow="0">
      <root>
        <mxCell id="0" />
        <mxCell id="1" parent="0" />
        <mxCell id="N0bSHpCtG5Lw8geKBw8h-34" style="edgeStyle=orthogonalEdgeStyle;rounded=0;orthogonalLoop=1;jettySize=auto;html=1;exitX=0.5;exitY=1;exitDx=0;exitDy=0;entryX=0.5;entryY=0;entryDx=0;entryDy=0;" edge="1" parent="1" source="N0bSHpCtG5Lw8geKBw8h-1" target="N0bSHpCtG5Lw8geKBw8h-33">
          <mxGeometry relative="1" as="geometry" />
        </mxCell>
        <mxCell id="N0bSHpCtG5Lw8geKBw8h-1" value="Nudity probability" style="rounded=1;whiteSpace=wrap;html=1;" vertex="1" parent="1">
          <mxGeometry x="240" y="880" width="120" height="60" as="geometry" />
        </mxCell>
        <mxCell id="N0bSHpCtG5Lw8geKBw8h-2" style="edgeStyle=orthogonalEdgeStyle;rounded=0;orthogonalLoop=1;jettySize=auto;html=1;exitX=0.5;exitY=1;exitDx=0;exitDy=0;entryX=0.5;entryY=0;entryDx=0;entryDy=0;" edge="1" parent="1" source="N0bSHpCtG5Lw8geKBw8h-3" target="N0bSHpCtG5Lw8geKBw8h-10">
          <mxGeometry relative="1" as="geometry" />
        </mxCell>
        <mxCell id="N0bSHpCtG5Lw8geKBw8h-3" value="Violence classification head" style="rounded=1;whiteSpace=wrap;html=1;" vertex="1" parent="1">
          <mxGeometry x="80" y="720" width="120" height="60" as="geometry" />
        </mxCell>
        <mxCell id="N0bSHpCtG5Lw8geKBw8h-4" style="edgeStyle=orthogonalEdgeStyle;rounded=0;orthogonalLoop=1;jettySize=auto;html=1;exitX=0.5;exitY=1;exitDx=0;exitDy=0;entryX=0.5;entryY=0;entryDx=0;entryDy=0;" edge="1" parent="1" source="N0bSHpCtG5Lw8geKBw8h-5" target="N0bSHpCtG5Lw8geKBw8h-15">
          <mxGeometry relative="1" as="geometry" />
        </mxCell>
        <mxCell id="N0bSHpCtG5Lw8geKBw8h-5" value="Fused features" style="rounded=1;whiteSpace=wrap;html=1;" vertex="1" parent="1">
          <mxGeometry x="80" y="400" width="440" height="40" as="geometry" />
        </mxCell>
        <mxCell id="N0bSHpCtG5Lw8geKBw8h-6" style="edgeStyle=orthogonalEdgeStyle;rounded=0;orthogonalLoop=1;jettySize=auto;html=1;exitX=0.5;exitY=1;exitDx=0;exitDy=0;entryX=0.5;entryY=0;entryDx=0;entryDy=0;" edge="1" parent="1" source="N0bSHpCtG5Lw8geKBw8h-7" target="N0bSHpCtG5Lw8geKBw8h-1">
          <mxGeometry relative="1" as="geometry" />
        </mxCell>
        <mxCell id="N0bSHpCtG5Lw8geKBw8h-7" value="Nudity classification head" style="rounded=1;whiteSpace=wrap;html=1;" vertex="1" parent="1">
          <mxGeometry x="240" y="720" width="120" height="60" as="geometry" />
        </mxCell>
        <mxCell id="N0bSHpCtG5Lw8geKBw8h-8" style="edgeStyle=orthogonalEdgeStyle;rounded=0;orthogonalLoop=1;jettySize=auto;html=1;exitX=0.5;exitY=1;exitDx=0;exitDy=0;entryX=0.5;entryY=0;entryDx=0;entryDy=0;" edge="1" parent="1" source="N0bSHpCtG5Lw8geKBw8h-9" target="N0bSHpCtG5Lw8geKBw8h-11">
          <mxGeometry relative="1" as="geometry" />
        </mxCell>
        <mxCell id="N0bSHpCtG5Lw8geKBw8h-9" value="Hate classification head" style="rounded=1;whiteSpace=wrap;html=1;" vertex="1" parent="1">
          <mxGeometry x="400" y="720" width="120" height="60" as="geometry" />
        </mxCell>
        <mxCell id="N0bSHpCtG5Lw8geKBw8h-35" style="edgeStyle=orthogonalEdgeStyle;rounded=0;orthogonalLoop=1;jettySize=auto;html=1;exitX=0.5;exitY=1;exitDx=0;exitDy=0;entryX=0;entryY=0.5;entryDx=0;entryDy=0;" edge="1" parent="1" source="N0bSHpCtG5Lw8geKBw8h-10" target="N0bSHpCtG5Lw8geKBw8h-33">
          <mxGeometry relative="1" as="geometry" />
        </mxCell>
        <mxCell id="N0bSHpCtG5Lw8geKBw8h-10" value="Violence probability" style="rounded=1;whiteSpace=wrap;html=1;" vertex="1" parent="1">
          <mxGeometry x="80" y="880" width="120" height="60" as="geometry" />
        </mxCell>
        <mxCell id="N0bSHpCtG5Lw8geKBw8h-36" style="edgeStyle=orthogonalEdgeStyle;rounded=0;orthogonalLoop=1;jettySize=auto;html=1;exitX=0.5;exitY=1;exitDx=0;exitDy=0;entryX=1;entryY=0.5;entryDx=0;entryDy=0;" edge="1" parent="1" source="N0bSHpCtG5Lw8geKBw8h-11" target="N0bSHpCtG5Lw8geKBw8h-33">
          <mxGeometry relative="1" as="geometry" />
        </mxCell>
        <mxCell id="N0bSHpCtG5Lw8geKBw8h-11" value="Hate probability" style="rounded=1;whiteSpace=wrap;html=1;" vertex="1" parent="1">
          <mxGeometry x="400" y="880" width="120" height="60" as="geometry" />
        </mxCell>
        <mxCell id="N0bSHpCtG5Lw8geKBw8h-12" style="edgeStyle=orthogonalEdgeStyle;rounded=0;orthogonalLoop=1;jettySize=auto;html=1;exitX=0.5;exitY=1;exitDx=0;exitDy=0;entryX=0.5;entryY=0;entryDx=0;entryDy=0;" edge="1" parent="1" source="N0bSHpCtG5Lw8geKBw8h-15" target="N0bSHpCtG5Lw8geKBw8h-19">
          <mxGeometry relative="1" as="geometry" />
        </mxCell>
        <mxCell id="N0bSHpCtG5Lw8geKBw8h-13" style="edgeStyle=orthogonalEdgeStyle;rounded=0;orthogonalLoop=1;jettySize=auto;html=1;exitX=1;exitY=0.5;exitDx=0;exitDy=0;entryX=0.75;entryY=0;entryDx=0;entryDy=0;" edge="1" parent="1" source="N0bSHpCtG5Lw8geKBw8h-15" target="N0bSHpCtG5Lw8geKBw8h-19">
          <mxGeometry relative="1" as="geometry" />
        </mxCell>
        <mxCell id="N0bSHpCtG5Lw8geKBw8h-14" style="edgeStyle=orthogonalEdgeStyle;rounded=0;orthogonalLoop=1;jettySize=auto;html=1;exitX=0;exitY=0.5;exitDx=0;exitDy=0;entryX=0.25;entryY=0;entryDx=0;entryDy=0;" edge="1" parent="1" source="N0bSHpCtG5Lw8geKBw8h-15" target="N0bSHpCtG5Lw8geKBw8h-19">
          <mxGeometry relative="1" as="geometry">
            <Array as="points">
              <mxPoint x="190" y="510" />
            </Array>
          </mxGeometry>
        </mxCell>
        <mxCell id="N0bSHpCtG5Lw8geKBw8h-15" value="Shared layers" style="rounded=1;whiteSpace=wrap;html=1;" vertex="1" parent="1">
          <mxGeometry x="240" y="480" width="120" height="60" as="geometry" />
        </mxCell>
        <mxCell id="N0bSHpCtG5Lw8geKBw8h-16" style="edgeStyle=orthogonalEdgeStyle;rounded=0;orthogonalLoop=1;jettySize=auto;html=1;exitX=0.5;exitY=1;exitDx=0;exitDy=0;entryX=0.5;entryY=0;entryDx=0;entryDy=0;" edge="1" parent="1" source="N0bSHpCtG5Lw8geKBw8h-19" target="N0bSHpCtG5Lw8geKBw8h-7">
          <mxGeometry relative="1" as="geometry" />
        </mxCell>
        <mxCell id="N0bSHpCtG5Lw8geKBw8h-17" style="edgeStyle=orthogonalEdgeStyle;rounded=0;orthogonalLoop=1;jettySize=auto;html=1;exitX=0.25;exitY=1;exitDx=0;exitDy=0;entryX=0.5;entryY=0;entryDx=0;entryDy=0;" edge="1" parent="1" source="N0bSHpCtG5Lw8geKBw8h-19" target="N0bSHpCtG5Lw8geKBw8h-3">
          <mxGeometry relative="1" as="geometry" />
        </mxCell>
        <mxCell id="N0bSHpCtG5Lw8geKBw8h-18" style="edgeStyle=orthogonalEdgeStyle;rounded=0;orthogonalLoop=1;jettySize=auto;html=1;exitX=0.75;exitY=1;exitDx=0;exitDy=0;entryX=0.5;entryY=0;entryDx=0;entryDy=0;" edge="1" parent="1" source="N0bSHpCtG5Lw8geKBw8h-19" target="N0bSHpCtG5Lw8geKBw8h-9">
          <mxGeometry relative="1" as="geometry" />
        </mxCell>
        <mxCell id="N0bSHpCtG5Lw8geKBw8h-19" value="Transformed features" style="rounded=1;whiteSpace=wrap;html=1;" vertex="1" parent="1">
          <mxGeometry x="80" y="600" width="440" height="40" as="geometry" />
        </mxCell>
        <mxCell id="N0bSHpCtG5Lw8geKBw8h-20" value="" style="swimlane;startSize=0;" vertex="1" parent="1">
          <mxGeometry x="40" y="680" width="520" height="160" as="geometry" />
        </mxCell>
        <mxCell id="N0bSHpCtG5Lw8geKBw8h-26" style="edgeStyle=orthogonalEdgeStyle;rounded=0;orthogonalLoop=1;jettySize=auto;html=1;exitX=0;exitY=0.5;exitDx=0;exitDy=0;entryX=0.5;entryY=0;entryDx=0;entryDy=0;" edge="1" parent="1" source="N0bSHpCtG5Lw8geKBw8h-21" target="N0bSHpCtG5Lw8geKBw8h-22">
          <mxGeometry relative="1" as="geometry" />
        </mxCell>
        <mxCell id="N0bSHpCtG5Lw8geKBw8h-27" style="edgeStyle=orthogonalEdgeStyle;rounded=0;orthogonalLoop=1;jettySize=auto;html=1;exitX=0.5;exitY=1;exitDx=0;exitDy=0;entryX=0.5;entryY=0;entryDx=0;entryDy=0;" edge="1" parent="1" source="N0bSHpCtG5Lw8geKBw8h-21" target="N0bSHpCtG5Lw8geKBw8h-23">
          <mxGeometry relative="1" as="geometry" />
        </mxCell>
        <mxCell id="N0bSHpCtG5Lw8geKBw8h-28" style="edgeStyle=orthogonalEdgeStyle;rounded=0;orthogonalLoop=1;jettySize=auto;html=1;exitX=1;exitY=0.5;exitDx=0;exitDy=0;entryX=0.5;entryY=0;entryDx=0;entryDy=0;" edge="1" parent="1" source="N0bSHpCtG5Lw8geKBw8h-21" target="N0bSHpCtG5Lw8geKBw8h-24">
          <mxGeometry relative="1" as="geometry" />
        </mxCell>
        <mxCell id="N0bSHpCtG5Lw8geKBw8h-21" value="Post" style="rounded=1;whiteSpace=wrap;html=1;" vertex="1" parent="1">
          <mxGeometry x="240" y="40" width="120" height="60" as="geometry" />
        </mxCell>
        <mxCell id="N0bSHpCtG5Lw8geKBw8h-30" style="edgeStyle=orthogonalEdgeStyle;rounded=0;orthogonalLoop=1;jettySize=auto;html=1;exitX=0.5;exitY=1;exitDx=0;exitDy=0;entryX=0;entryY=0.5;entryDx=0;entryDy=0;" edge="1" parent="1" source="N0bSHpCtG5Lw8geKBw8h-22" target="N0bSHpCtG5Lw8geKBw8h-25">
          <mxGeometry relative="1" as="geometry" />
        </mxCell>
        <mxCell id="N0bSHpCtG5Lw8geKBw8h-22" value="Image" style="rounded=1;whiteSpace=wrap;html=1;" vertex="1" parent="1">
          <mxGeometry x="80" y="160" width="120" height="60" as="geometry" />
        </mxCell>
        <mxCell id="N0bSHpCtG5Lw8geKBw8h-29" style="edgeStyle=orthogonalEdgeStyle;rounded=0;orthogonalLoop=1;jettySize=auto;html=1;exitX=0.5;exitY=1;exitDx=0;exitDy=0;" edge="1" parent="1" source="N0bSHpCtG5Lw8geKBw8h-23" target="N0bSHpCtG5Lw8geKBw8h-25">
          <mxGeometry relative="1" as="geometry" />
        </mxCell>
        <mxCell id="N0bSHpCtG5Lw8geKBw8h-23" value="Text" style="rounded=1;whiteSpace=wrap;html=1;" vertex="1" parent="1">
          <mxGeometry x="240" y="160" width="120" height="60" as="geometry" />
        </mxCell>
        <mxCell id="N0bSHpCtG5Lw8geKBw8h-31" style="edgeStyle=orthogonalEdgeStyle;rounded=0;orthogonalLoop=1;jettySize=auto;html=1;exitX=0.5;exitY=1;exitDx=0;exitDy=0;entryX=1;entryY=0.5;entryDx=0;entryDy=0;" edge="1" parent="1" source="N0bSHpCtG5Lw8geKBw8h-24" target="N0bSHpCtG5Lw8geKBw8h-25">
          <mxGeometry relative="1" as="geometry" />
        </mxCell>
        <mxCell id="N0bSHpCtG5Lw8geKBw8h-24" value="Author" style="rounded=1;whiteSpace=wrap;html=1;" vertex="1" parent="1">
          <mxGeometry x="400" y="160" width="120" height="60" as="geometry" />
        </mxCell>
        <mxCell id="N0bSHpCtG5Lw8geKBw8h-32" style="edgeStyle=orthogonalEdgeStyle;rounded=0;orthogonalLoop=1;jettySize=auto;html=1;exitX=0.5;exitY=1;exitDx=0;exitDy=0;entryX=0.5;entryY=0;entryDx=0;entryDy=0;" edge="1" parent="1" source="N0bSHpCtG5Lw8geKBw8h-25" target="N0bSHpCtG5Lw8geKBw8h-5">
          <mxGeometry relative="1" as="geometry" />
        </mxCell>
        <mxCell id="N0bSHpCtG5Lw8geKBw8h-25" value="Fusion" style="rounded=1;whiteSpace=wrap;html=1;" vertex="1" parent="1">
          <mxGeometry x="240" y="280" width="120" height="60" as="geometry" />
        </mxCell>
        <mxCell id="N0bSHpCtG5Lw8geKBw8h-33" value="Harmful probability" style="rounded=1;whiteSpace=wrap;html=1;" vertex="1" parent="1">
          <mxGeometry x="240" y="1000" width="120" height="60" as="geometry" />
        </mxCell>
      </root>
    </mxGraphModel>
  </diagram>
</mxfile>
